<?xml version="1.0" encoding="UTF-8" standalone="no"?>
<!DOCTYPE svg PUBLIC "-//W3C//DTD SVG 1.1//EN"
 "http://www.w3.org/Graphics/SVG/1.1/DTD/svg11.dtd">
<!-- Generated by graphviz version 15.1.0 (20260618.0150)
 -->
<!-- Title: G Pages: 1 -->
<svg width="654pt" height="167pt"
 viewBox="0.00 0.00 654.00 167.00" xmlns="http://www.w3.org/2000/svg" xmlns:xlink="http://www.w3.org/1999/xlink">
<g id="graph0" class="graph" transform="scale(1 1) rotate(0) translate(4 163)">
<title>G</title><style>.edge>path:hover{stroke-width:8}</style>
<polygon fill="white" stroke="none" points="-4,4 -4,-163 650.34,-163 650.34,4 -4,4"/>
<!-- bs4 -->
<g id="node1" class="node">
<title>bs4</title><style>.edge>path:hover{stroke-width:8}</style>
<ellipse fill="#c04040" stroke="black" cx="140.63" cy="-141" rx="27" ry="18"/>
<text xml:space="preserve" text-anchor="middle" x="140.63" y="-137.5" font-family="Helvetica,sans-Serif" font-size="10.00" fill="#ffffff">bs4</text>
</g>
<!-- src_scrape -->
<g id="node10" class="node">
<title>src_scrape</title><style>.edge>path:hover{stroke-width:8}</style>
<ellipse fill="#7f40c0" stroke="black" cx="381.91" cy="-141" rx="37.13" ry="18"/>
<text xml:space="preserve" text-anchor="middle" x="381.91" y="-137.5" font-family="Helvetica,sans-Serif" font-size="10.00" fill="#ffffff">src.scrape</text>
</g>
<!-- bs4&#45;&gt;src_scrape -->
<g id="edge1" class="edge">
<title>bs4&#45;&gt;src_scrape</title><style>.edge>path:hover{stroke-width:8}</style>
<path fill="none" stroke="black" d="M167.7,-141C207.28,-141 283.2,-141 332.94,-141"/>
<polygon fill="#c04040" stroke="black" points="332.85,-144.5 342.85,-141 332.85,-137.5 332.85,-144.5"/>
</g>
<!-- dotenv -->
<g id="node2" class="node">
<title>dotenv</title><style>.edge>path:hover{stroke-width:8}</style>
<ellipse fill="#85b653" stroke="black" cx="31.72" cy="-91" rx="27.21" ry="18"/>
<text xml:space="preserve" text-anchor="middle" x="31.72" y="-87.5" font-family="Helvetica,sans-Serif" font-size="10.00" fill="#000000">dotenv</text>
</g>
<!-- src_db_utils -->
<g id="node6" class="node">
<title>src_db_utils</title><style>.edge>path:hover{stroke-width:8}</style>
<ellipse fill="#7a31c4" stroke="black" cx="257.66" cy="-87" rx="39.84" ry="18"/>
<text xml:space="preserve" text-anchor="middle" x="257.66" y="-83.5" font-family="Helvetica,sans-Serif" font-size="10.00" fill="#ffffff">src.db_utils</text>
</g>
<!-- dotenv&#45;&gt;src_db_utils -->
<g id="edge2" class="edge">
<title>dotenv&#45;&gt;src_db_utils</title><style>.edge>path:hover{stroke-width:8}</style>
<path fill="none" stroke="black" d="M59.24,-88.89C80.96,-87.66 112.45,-87.04 139.63,-91"/>
</g>
<!-- psycopg -->
<g id="node3" class="node">
<title>psycopg</title><style>.edge>path:hover{stroke-width:8}</style>
<ellipse fill="#33cccc" stroke="black" cx="31.72" cy="-18" rx="31.72" ry="18"/>
<text xml:space="preserve" text-anchor="middle" x="31.72" y="-14.5" font-family="Helvetica,sans-Serif" font-size="10.00" fill="#000000">psycopg</text>
</g>
<!-- psycopg&#45;&gt;src_db_utils -->
<g id="edge3" class="edge">
<title>psycopg&#45;&gt;src_db_utils</title><style>.edge>path:hover{stroke-width:8}</style>
<path fill="none" stroke="black" d="M47.01,-34.28C65.86,-54.03 101.16,-85.4 139.63,-91"/>
<path fill="none" stroke="black" d="M141.63,-91C163.14,-94.13 187.13,-93.88 207.62,-92.56"/>
<polygon fill="#33cccc" stroke="black" points="207.7,-96.06 217.41,-91.81 207.17,-89.08 207.7,-96.06"/>
</g>
<!-- src_query_data -->
<g id="node9" class="node">
<title>src_query_data</title><style>.edge>path:hover{stroke-width:8}</style>
<ellipse fill="#753ab0" stroke="black" cx="381.91" cy="-33" rx="48.41" ry="18"/>
<text xml:space="preserve" text-anchor="middle" x="381.91" y="-29.5" font-family="Helvetica,sans-Serif" font-size="10.00" fill="#ffffff">src.query_data</text>
</g>
<!-- psycopg&#45;&gt;src_query_data -->
<g id="edge4" class="edge">
<title>psycopg&#45;&gt;src_query_data</title><style>.edge>path:hover{stroke-width:8}</style>
<path fill="none" stroke="black" d="M258.66,-14C281.58,-14.96 306.66,-18.42 328.1,-22.14"/>
<polygon fill="#33cccc" stroke="black" points="327.32,-25.55 337.78,-23.88 328.56,-18.66 327.32,-25.55"/>
<path fill="none" stroke="black" d="M63.52,-16.29C106.71,-14.16 187.7,-11.12 256.66,-14"/>
</g>
<!-- psycopg_sql -->
<g id="node4" class="node">
<title>psycopg_sql</title><style>.edge>path:hover{stroke-width:8}</style>
<ellipse fill="#53b6b6" stroke="black" cx="140.63" cy="-45" rx="41.19" ry="18"/>
<text xml:space="preserve" text-anchor="middle" x="140.63" y="-41.5" font-family="Helvetica,sans-Serif" font-size="10.00" fill="#000000">psycopg.sql</text>
</g>
<!-- psycopg_sql&#45;&gt;src_query_data -->
<g id="edge5" class="edge">
<title>psycopg_sql&#45;&gt;src_query_data</title><style>.edge>path:hover{stroke-width:8}</style>
<path fill="none" stroke="black" d="M170.38,-32.05C193.32,-23 226.49,-12.74 256.66,-14"/>
</g>
<!-- src_app -->
<g id="node5" class="node">
<title>src_app</title><style>.edge>path:hover{stroke-width:8}</style>
<ellipse fill="#7a49ac" stroke="black" cx="617.32" cy="-60" rx="29.01" ry="18"/>
<text xml:space="preserve" text-anchor="middle" x="617.32" y="-56.5" font-family="Helvetica,sans-Serif" font-size="10.00" fill="#ffffff">src.app</text>
</g>
<!-- src_load_data -->
<g id="node7" class="node">
<title>src_load_data</title><style>.edge>path:hover{stroke-width:8}</style>
<ellipse fill="#7f40c0" stroke="black" cx="381.91" cy="-87" rx="44.8" ry="18"/>
<text xml:space="preserve" text-anchor="middle" x="381.91" y="-83.5" font-family="Helvetica,sans-Serif" font-size="10.00" fill="#ffffff">src.load_data</text>
</g>
<!-- src_db_utils&#45;&gt;src_load_data -->
<g id="edge6" class="edge">
<title>src_db_utils&#45;&gt;src_load_data</title><style>.edge>path:hover{stroke-width:8}</style>
<path fill="none" stroke="black" d="M297.68,-87C306.52,-87 316.08,-87 325.45,-87"/>
<polygon fill="#7a31c4" stroke="black" points="325.23,-90.5 335.23,-87 325.23,-83.5 325.23,-90.5"/>
</g>
<!-- src_db_utils&#45;&gt;src_query_data -->
<g id="edge7" class="edge">
<title>src_db_utils&#45;&gt;src_query_data</title><style>.edge>path:hover{stroke-width:8}</style>
<path fill="none" stroke="black" d="M287.02,-74.48C302.55,-67.61 322.1,-58.98 339.33,-51.37"/>
<polygon fill="#7a31c4" stroke="black" points="340.59,-54.64 348.32,-47.4 337.76,-48.23 340.59,-54.64"/>
</g>
<!-- src_pull_data -->
<g id="node8" class="node">
<title>src_pull_data</title><style>.edge>path:hover{stroke-width:8}</style>
<ellipse fill="#7a3db8" stroke="black" cx="509.31" cy="-87" rx="43" ry="18"/>
<text xml:space="preserve" text-anchor="middle" x="509.31" y="-83.5" font-family="Helvetica,sans-Serif" font-size="10.00" fill="#ffffff">src.pull_data</text>
</g>
<!-- src_load_data&#45;&gt;src_pull_data -->
<g id="edge8" class="edge">
<title>src_load_data&#45;&gt;src_pull_data</title><style>.edge>path:hover{stroke-width:8}</style>
<path fill="none" stroke="black" d="M427.12,-87C436.05,-87 445.52,-87 454.73,-87"/>
<polygon fill="#7f40c0" stroke="black" points="454.67,-90.5 464.67,-87 454.67,-83.5 454.67,-90.5"/>
</g>
<!-- src_pull_data&#45;&gt;src_app -->
<g id="edge9" class="edge">
<title>src_pull_data&#45;&gt;src_app</title><style>.edge>path:hover{stroke-width:8}</style>
<path fill="none" stroke="black" d="M546.8,-77.71C557.26,-75.04 568.69,-72.13 579.19,-69.46"/>
<polygon fill="#7a3db8" stroke="black" points="579.85,-72.9 588.68,-67.04 578.12,-66.12 579.85,-72.9"/>
</g>
<!-- src_query_data&#45;&gt;src_app -->
<g id="edge10" class="edge">
<title>src_query_data&#45;&gt;src_app</title><style>.edge>path:hover{stroke-width:8}</style>
<path fill="none" stroke="black" d="M428.75,-38.3C472.01,-43.31 536.17,-50.73 577.12,-55.46"/>
<polygon fill="#753ab0" stroke="black" points="576.68,-58.94 587.02,-56.61 577.49,-51.98 576.68,-58.94"/>
</g>
<!-- src_scrape&#45;&gt;src_pull_data -->
<g id="edge11" class="edge">
<title>src_scrape&#45;&gt;src_pull_data</title><style>.edge>path:hover{stroke-width:8}</style>
<path fill="none" stroke="black" d="M410.43,-129.15C427.38,-121.85 449.41,-112.36 468.28,-104.24"/>
<polygon fill="#7f40c0" stroke="black" points="469.48,-107.53 477.28,-100.36 466.71,-101.1 469.48,-107.53"/>
</g>
</g>
</svg>
